<svg xmlns="http://www.w3.org/2000/svg" xmlns:xlink="http://www.w3.org/1999/xlink" id="Layer_1" x="0" y="0" version="1.1" viewBox="0 0 400 400" xml:space="preserve" style="enable-background:new 0 0 400 400"><style type="text/css">.st5{fill:#07869f}.st7{fill:#f3eddf}.st10{fill:#fff}</style><g><g><g><defs><circle id="SVGID_1_" cx="200" cy="200" r="200"/></defs><clipPath id="SVGID_00000052818040901813351280000007518766838758832526_"><use xlink:href="#SVGID_1_" style="overflow:visible"/></clipPath><g style="clip-path:url(#SVGID_00000052818040901813351280000007518766838758832526_)"><g><defs><rect id="SVGID_00000045584513253442795710000007898759190679926185_" width="596.93" height="457.67" x="2.96" y="-46.3"/></defs><clipPath id="SVGID_00000008829274463569370280000018334569817631149981_"><use xlink:href="#SVGID_00000045584513253442795710000007898759190679926185_" style="overflow:visible"/></clipPath><rect style="clip-path:url(#SVGID_00000008829274463569370280000018334569817631149981_);fill:#f3eddf" width="596.93" height="265.16" x="2.96" y="13.51"/></g><g><defs><rect id="SVGID_00000029762467172842653890000003435791044530910119_" width="596.93" height="457.67" x="2.96" y="-46.3"/></defs><clipPath id="SVGID_00000169517175113369149020000011543809438794180247_"><use xlink:href="#SVGID_00000029762467172842653890000003435791044530910119_" style="overflow:visible"/></clipPath><rect style="clip-path:url(#SVGID_00000169517175113369149020000011543809438794180247_);fill:#62d9d9" width="310.47" height="310.47" x="-107.48" y="-120.59"/></g><g><defs><rect id="SVGID_00000116227609944474343180000015873070247418787998_" width="596.93" height="457.67" x="2.96" y="-46.3"/></defs><clipPath id="SVGID_00000147932074215779433270000005052004511417101214_"><use xlink:href="#SVGID_00000116227609944474343180000015873070247418787998_" style="overflow:visible"/></clipPath><rect style="opacity:.9;clip-path:url(#SVGID_00000147932074215779433270000005052004511417101214_);fill:#f25d50;enable-background:new" width="354.89" height="354.89" x="138.32" y="-4.52"/></g><g><defs><rect id="SVGID_00000116194079981040872070000001434421392072111786_" width="596.93" height="457.67" x="2.96" y="-46.3"/></defs><clipPath id="SVGID_00000164475141961327212330000009029639165503156869_"><use xlink:href="#SVGID_00000116194079981040872070000001434421392072111786_" style="overflow:visible"/></clipPath><g style="opacity:.7;clip-path:url(#SVGID_00000164475141961327212330000009029639165503156869_)"><path d="M245.66,328.52v85.29H-77.61v-84.25c0-88.29,72.23-162.08,160.52-162.68 C172.69,166.28,245.66,238.88,245.66,328.52" class="st5"/></g></g><g><defs><rect id="SVGID_00000090252440533023941670000011882382846004171430_" width="596.93" height="457.67" x="2.96" y="-46.3"/></defs><clipPath id="SVGID_00000151529751629486393090000002678231899305076879_"><use xlink:href="#SVGID_00000090252440533023941670000011882382846004171430_" style="overflow:visible"/></clipPath><g style="opacity:.5;clip-path:url(#SVGID_00000151529751629486393090000002678231899305076879_)"><path d="M617.07,325.5v114.54H182.93V326.9c0-118.57,97-217.66,215.57-218.47 C519.07,107.62,617.07,205.12,617.07,325.5" class="st7"/></g></g><g><defs><rect id="SVGID_00000118364609101808962100000002192667865489249184_" width="596.93" height="457.67" x="2.96" y="-46.3"/></defs><clipPath id="SVGID_00000026874976473124367950000016073537251282415757_"><use xlink:href="#SVGID_00000118364609101808962100000002192667865489249184_" style="overflow:visible"/></clipPath><g style="opacity:.67;clip-path:url(#SVGID_00000026874976473124367950000016073537251282415757_)"><linearGradient id="SVGID_00000116949185494742830890000010401473734009695365_" x1="532.599" x2="377.978" y1="287.153" y2="285.681" gradientTransform="matrix(1 0 0 -1 0 402)" gradientUnits="userSpaceOnUse"><stop offset=".212" style="stop-color:#f25d50"/><stop offset=".457" style="stop-color:#c98177"/><stop offset="1" style="stop-color:#62d9d9"/></linearGradient><path style="fill:url(#SVGID_00000116949185494742830890000010401473734009695365_)" d="M286.86,84.69V13.51h269.77v70.31 c0,73.68-60.27,135.25-133.95,135.75C347.75,220.08,286.86,159.49,286.86,84.69"/></g></g></g></g></g><g><g><g><path d="M371.43,200c0,94.68-76.75,171.43-171.43,171.43S28.57,294.68,28.57,200S105.32,28.57,200,28.57 C294.68,28.57,371.43,105.32,371.43,200"/></g></g><g><g><path d="M151.75,244.44l-3.43-10.79H116.7l-3.43,10.79H91.3l31.75-88.89h18.92l32.13,88.89H151.75z M132.57,180.95 l-10.92,36.57h21.59L132.57,180.95z" class="st10"/><path d="M189.21,173.33h-20.06v-17.78h60.83v17.78h-20.19v71.11h-20.57L189.21,173.33L189.21,173.33z" class="st10"/><path d="M285.97,155.56h22.73L282.29,200l26.41,44.44h-22.73l-15.49-28.57l-15.49,28.57h-22.6l26.4-44.44 l-26.41-44.44h22.6l15.49,28.7L285.97,155.56z" class="st10"/></g></g></g></g></svg>