<svg xmlns="http://www.w3.org/2000/svg" xmlns:xlink="http://www.w3.org/1999/xlink" id="Layer_1" x="0" y="0" version="1.1" viewBox="0 0 380 380" xml:space="preserve" style="enable-background:new 0 0 380 380"><style type="text/css">.st0{opacity:.8;clip-path:url(#SVGID_2_);fill:#e96380;enable-background:new}.st1{opacity:.8;clip-path:url(#SVGID_4_)}.st2{fill:#9c339c}.st3,.st4{opacity:.8;clip-path:url(#SVGID_6_);fill:url(#SVGID_7_);enable-background:new}.st4{opacity:.5;clip-path:url(#SVGID_9_);fill:url(#SVGID_10_)}.st5{fill:#fff}</style><g id="Layer_1_1_"><g><g><g><g><defs><circle id="SVGID_1_" cx="190" cy="190" r="189"/></defs><clipPath id="SVGID_2_"><use xlink:href="#SVGID_1_" style="overflow:visible"/></clipPath><rect width="513.93" height="435.14" x="-12.01" y="-31.79" class="st0"/></g><g><defs><circle id="SVGID_3_" cx="190" cy="190" r="189"/></defs><clipPath id="SVGID_4_"><use xlink:href="#SVGID_3_" style="overflow:visible"/></clipPath><g class="st1"><path d="M70.53,356.47H-47.13V-89.49H70.53c123.15,0,222.98,99.83,222.98,222.98 C293.5,256.64,193.67,356.47,70.53,356.47" class="st2"/></g></g><g><defs><circle id="SVGID_5_" cx="190" cy="190" r="189"/></defs><clipPath id="SVGID_6_"><use xlink:href="#SVGID_5_" style="overflow:visible"/></clipPath><radialGradient id="SVGID_7_" cx="-749.167" cy="383.534" r="206.261" gradientTransform="matrix(0.8736 0 0 -0.8736 882.9122 567.2357)" gradientUnits="userSpaceOnUse"><stop offset="0" style="stop-color:#00b4cc;stop-opacity:0"/><stop offset=".519" style="stop-color:#00b4cc;stop-opacity:.65"/><stop offset="1" style="stop-color:#00bed6;stop-opacity:.95"/></radialGradient><circle cx="228.44" cy="232.18" r="180.19" class="st3"/></g><g><defs><circle id="SVGID_8_" cx="190" cy="190" r="189"/></defs><clipPath id="SVGID_9_"><use xlink:href="#SVGID_8_" style="overflow:visible"/></clipPath><linearGradient id="SVGID_10_" x1="-4728.033" x2="-4347.712" y1="17193.129" y2="17193.129" gradientTransform="matrix(0.9504 -0.311 -0.311 -0.9504 9882.3594 15154.7402)" gradientUnits="userSpaceOnUse"><stop offset=".029" style="stop-color:#fff"/><stop offset=".476" style="stop-color:#ffafeb"/><stop offset="1" style="stop-color:#00b4cc"/></linearGradient><polygon points="199.71 59.85 121.43 432.02 482.88 313.72" class="st4"/></g></g><g><path d="M352,190c0,89.47-72.53,162-162,162S28,279.47,28,190S100.53,28,190,28S352,100.53,352,190"/></g></g><g><g><path d="M179.08,232h-18.96v-52.08L142,232h-14.4l-18.72-52.08V232H89.93v-84h22.44l22.44,58.44L157,148h22.08V232z" class="st5"/><path d="M195.17,148h19.68v84h-19.68L195.17,148L195.17,148z" class="st5"/><path d="M280.48,232l-3.24-10.2h-29.88l-3.24,10.2h-20.76l30-84h17.88l30.36,84H280.48z M262.36,172l-10.32,34.56 h20.4L262.36,172z" class="st5"/></g></g></g></g></svg>